<?xml version="1.0" encoding="iso-8859-1"?>
<!-- Generator: Adobe Illustrator 19.0.0, SVG Export Plug-In . SVG Version: 6.00 Build 0)  -->
<svg version="1.1" id="Layer_1" xmlns="http://www.w3.org/2000/svg" xmlns:xlink="http://www.w3.org/1999/xlink" x="0px" y="0px"
	 viewBox="0 0 511.997 511.997" style="enable-background:new 0 0 511.997 511.997;" xml:space="preserve">
<path style="fill:#2D4961;" d="M382.025,127.066c11.331-9.116,17.92-22.878,17.912-37.424V31.987
	C399.938,14.322,385.616,0,367.951,0H144.046c-17.665,0-31.987,14.322-31.987,31.987v57.656
	c-0.008,14.546,6.581,28.308,17.912,37.424l110.034,88.443v18.312v0.48L205.14,308.51l-77.567,11.835
	c-9.836,1.407-16.673,10.524-15.266,20.359c0.536,3.742,2.239,7.229,4.87,9.948l56.616,58.055l-13.754,82.205
	c-1.591,9.812,5.062,19.056,14.874,20.647c3.982,0.648,8.069-0.064,11.595-2.015l69.491-38.224l69.171,38.224
	c8.58,5.006,19.6,2.103,24.606-6.477c2.135-3.67,2.911-7.973,2.183-12.155l-13.754-82.205l56.616-58.056
	c6.917-7.133,6.749-18.52-0.384-25.445c-2.671-2.591-6.085-4.294-9.772-4.862l-77.567-11.835l-35.105-74.289v-0.48v-18.232
	L382.025,127.066z"/>
<path style="fill:#123247;" d="M383.945,47.98V94.04c-0.016,7.285-3.343,14.17-9.036,18.712l-86.923,69.651
	c-10.092,8.029-15.977,20.215-15.993,33.106l0,0l110.034-88.443c11.331-9.116,17.92-22.878,17.912-37.424V31.987
	C391.11,31.987,383.945,39.143,383.945,47.98z"/>
<path style="fill:#44637F;" d="M144.046,0c-17.665,0-31.987,14.322-31.987,31.987v55.976l0,0c8.836,0,15.993-7.157,15.993-15.993
	V31.987c0-8.836,7.157-15.993,15.993-15.993h207.912c8.836,0,15.993-7.157,15.993-15.993H144.046z"/>
<path style="fill:#123247;" d="M338.204,408.708l56.616-58.056c4.718-4.838,6.317-11.915,4.158-18.312
	c-0.36-0.888-0.784-1.743-1.279-2.559c-4.062,0.4-7.909,2.015-11.035,4.638l-45.341,46.46c-7.085,7.277-10.292,17.489-8.636,27.508
	l10.795,66.212c1.591,9.812-5.062,19.056-14.874,20.647c-3.982,0.648-8.069-0.064-11.595-2.015l-53.657-29.428
	c-9.732-5.47-21.615-5.47-31.347,0l-53.258,29.588c-0.736,0.36-1.519,0.624-2.319,0.8c-5.614,1.583-8.876,7.421-7.285,13.027
	c0.232,0.808,0.552,1.591,0.968,2.327l0,0c5.246,2.799,11.547,2.799,16.793,0l69.091-38.224l69.171,38.224
	c8.58,5.006,19.6,2.103,24.606-6.477c2.135-3.67,2.911-7.973,2.183-12.155L338.204,408.708z"/>
<polygon style="fill:#FFCB5B;" points="255.999,434.777 196.584,467.643 207.939,397.912 159.08,347.853 226.571,337.538 
	255.999,274.844 285.426,337.538 352.918,347.853 304.058,397.912 315.414,467.643 "/>
<polygon style="fill:#FFDB6F;" points="235.527,350.572 263.516,290.917 255.999,274.844 226.571,337.538 159.08,347.853 
	171.314,360.408 "/>
<polygon style="fill:#F7B84E;" points="352.918,347.853 335.085,345.134 295.102,386.157 306.457,455.808 247.042,423.022 
	199.622,449.171 196.584,467.643 255.999,434.777 315.414,467.643 304.058,397.912 "/>
<path style="fill:#3689C9;" d="M150.043,102.117c-3.79-3.031-5.997-7.621-5.997-12.475V31.987h223.906v57.656
	c0,4.854-2.207,9.444-5.997,12.475l-105.955,85.164L150.043,102.117z"/>
<g>
	<polygon style="fill:#E2E5E7;" points="327.968,129.465 327.968,47.98 295.982,47.98 295.982,155.135 	"/>
	<polygon style="fill:#E2E5E7;" points="216.016,155.135 216.016,47.98 184.029,47.98 184.029,129.465 	"/>
	<polygon style="fill:#E2E5E7;" points="240.005,174.406 255.999,187.281 271.992,174.406 271.992,47.98 240.005,47.98 	"/>
</g>
<rect x="144.022" y="31.987" style="fill:#4C9FD7;" width="223.906" height="15.993"/>
<g>
	<rect x="184.005" y="31.987" style="fill:#F1F2F2;" width="31.987" height="15.993"/>
	<rect x="239.981" y="31.987" style="fill:#F1F2F2;" width="31.987" height="15.993"/>
	<rect x="295.958" y="31.987" style="fill:#F1F2F2;" width="31.987" height="15.993"/>
</g>
<path style="fill:#44637F;" d="M240.005,215.909v17.912v0.48L205.14,308.51l-77.567,11.835
	c-9.836,1.407-16.673,10.524-15.266,20.359c0.536,3.742,2.239,7.229,4.87,9.948l2.879,3.039c0.104-8.732,6.549-16.097,15.194-17.353
	l61.334-9.356c10.308-1.463,19.256-7.845,23.99-17.113l31.267-61.974c2.719-5.294,4.142-11.163,4.158-17.113l0,0
	c0-8.213-6.661-14.874-14.874-14.874l0,0H240.005z"/>
<g>
</g>
<g>
</g>
<g>
</g>
<g>
</g>
<g>
</g>
<g>
</g>
<g>
</g>
<g>
</g>
<g>
</g>
<g>
</g>
<g>
</g>
<g>
</g>
<g>
</g>
<g>
</g>
<g>
</g>
</svg>
